HIERARCHY
ROOT newVegas:Hips
{
	OFFSET 0.000000 96.479958 0.000000
	CHANNELS 6 Xposition Yposition Zposition Xrotation Yrotation Zrotation
	JOINT newVegas:Pelvis
	{
		OFFSET 0.000000 0.000000 0.000000
		CHANNELS 3 Xrotation Yrotation Zrotation
		JOINT newVegas:LeftUpLeg
		{
			OFFSET 18.735201 -5.666702 -4.541200
			CHANNELS 3 Xrotation Yrotation Zrotation
			JOINT newVegas:LeftLeg
			{
				OFFSET -0.021200 -31.938179 0.493100
				CHANNELS 3 Xrotation Yrotation Zrotation
				JOINT newVegas:LeftFoot
				{
					OFFSET 0.021200 -31.938179 -4.336299
					CHANNELS 3 Xrotation Yrotation Zrotation
					JOINT newVegas:LeftToeBase
					{
						OFFSET 0.943001 -26.722000 15.023500
						CHANNELS 3 Xrotation Yrotation Zrotation
						End Site
						{
							OFFSET 0.000000 30.670183 0.000000
						}
					}
				}
				JOINT newVegas:Left_PantLeg
				{
					OFFSET 0.663870 -9.044666 -1.108900
					CHANNELS 3 Xrotation Yrotation Zrotation
					End Site
					{
						OFFSET 1.415995 20.635357 0.000000
					}
				}
			}
		}
		JOINT newVegas:RightUpLeg
		{
			OFFSET -18.735201 -5.666702 -4.541200
			CHANNELS 3 Xrotation Yrotation Zrotation
			JOINT newVegas:RightLeg
			{
				OFFSET 0.018946 -31.938133 0.493100
				CHANNELS 3 Xrotation Yrotation Zrotation
				JOINT newVegas:RightFoot
				{
					OFFSET -0.018946 -31.938126 -4.336299
					CHANNELS 3 Xrotation Yrotation Zrotation
					JOINT newVegas:RightToeBase
					{
						OFFSET -0.943001 -26.722004 15.023500
						CHANNELS 3 Xrotation Yrotation Zrotation
						End Site
						{
							OFFSET 0.000000 30.670187 0.000000
						}
					}
				}
				JOINT newVegas:Right_PantLeg
				{
					OFFSET -0.661674 -9.044716 -1.108900
					CHANNELS 3 Xrotation Yrotation Zrotation
					End Site
					{
						OFFSET -1.415958 20.635269 0.000000
					}
				}
			}
		}
	}
	JOINT newVegas:Spine
	{
		OFFSET 0.000000 10.199997 -0.299500
		CHANNELS 3 Xrotation Yrotation Zrotation
		JOINT newVegas:Spine1
		{
			OFFSET 0.000000 11.900002 -1.516600
			CHANNELS 3 Xrotation Yrotation Zrotation
			JOINT newVegas:Spine2
			{
				OFFSET 0.000000 13.600006 -2.842500
				CHANNELS 3 Xrotation Yrotation Zrotation
				JOINT newVegas:Neck
				{
					OFFSET 0.000000 9.624100 -2.890100
					CHANNELS 3 Xrotation Yrotation Zrotation
					JOINT newVegas:Head
					{
						OFFSET 0.000000 14.068802 -1.351900
						CHANNELS 3 Xrotation Yrotation Zrotation
						JOINT newVegas:Hair_Back
						{
							OFFSET 0.000000 3.231903 -17.524799
							CHANNELS 3 Xrotation Yrotation Zrotation
							End Site
							{
								OFFSET 0.000000 19.849884 0.000000
							}
						}
						JOINT newVegas:Hair_Front
						{
							OFFSET 0.000000 31.260406 4.573800
							CHANNELS 3 Xrotation Yrotation Zrotation
							JOINT newVegas:Hair_Front1
							{
								OFFSET 0.000000 2.284103 11.993300
								CHANNELS 3 Xrotation Yrotation Zrotation
								JOINT newVegas:Hair_Front2
								{
									OFFSET 0.000000 2.284103 11.993300
									CHANNELS 3 Xrotation Yrotation Zrotation
									End Site
									{
										OFFSET 0.000000 12.208862 0.000000
									}
								}
							}
						}
						JOINT newVegas:Jowel
						{
							OFFSET 0.000000 -7.458206 6.864100
							CHANNELS 3 Xrotation Yrotation Zrotation
							End Site
							{
								OFFSET 0.000000 19.849884 0.000000
							}
						}
					}
				}
				JOINT newVegas:LeftShoulder
				{
					OFFSET 15.263000 10.923401 -0.547700
					CHANNELS 3 Xrotation Yrotation Zrotation
					JOINT newVegas:LeftArm
					{
						OFFSET 25.438599 -2.830597 -13.032500
						CHANNELS 3 Xrotation Yrotation Zrotation
						JOINT newVegas:LeftForeArm
						{
							OFFSET 29.960503 0.000000 0.000000
							CHANNELS 3 Xrotation Yrotation Zrotation
							JOINT newVegas:LeftHand
							{
								OFFSET 27.849251 0.000000 0.000000
								CHANNELS 3 Xrotation Yrotation Zrotation
								JOINT newVegas:LeftHandThumb1
								{
									OFFSET 4.487587 -3.305161 6.305391
									CHANNELS 3 Xrotation Yrotation Zrotation
									JOINT newVegas:LeftHandThumb2
									{
										OFFSET 5.480453 -3.164139 3.164143
										CHANNELS 3 Xrotation Yrotation Zrotation
										JOINT newVegas:LeftHandThumb3
										{
											OFFSET 5.159721 -2.978973 2.978967
											CHANNELS 3 Xrotation Yrotation Zrotation
											End Site
											{
												OFFSET 2.494507 5.926697 1.738678
											}
										}
									}
								}
								JOINT newVegas:LeftHandIndex1
								{
									OFFSET 18.578728 -0.527832 5.208049
									CHANNELS 3 Xrotation Yrotation Zrotation
									JOINT newVegas:LeftHandIndex2
									{
										OFFSET 3.192009 0.000000 0.000000
										CHANNELS 3 Xrotation Yrotation Zrotation
										JOINT newVegas:LeftHandIndex3
										{
											OFFSET 3.835129 0.000000 0.000000
											CHANNELS 3 Xrotation Yrotation Zrotation
											End Site
											{
												OFFSET -0.034599 3.816971 0.371180
											}
										}
									}
								}
								JOINT newVegas:LeftHandMiddle1
								{
									OFFSET 18.476105 0.000000 0.000000
									CHANNELS 3 Xrotation Yrotation Zrotation
									JOINT newVegas:LeftHandMiddle2
									{
										OFFSET 3.324875 0.000000 0.000000
										CHANNELS 3 Xrotation Yrotation Zrotation
										JOINT newVegas:LeftHandMiddle3
										{
											OFFSET 4.596550 0.000000 0.000000
											CHANNELS 3 Xrotation Yrotation Zrotation
											End Site
											{
												OFFSET 0.057701 4.578827 0.399218
											}
										}
									}
								}
								JOINT newVegas:LeftHandRing1
								{
									OFFSET 17.732719 0.121887 -4.201567
									CHANNELS 3 Xrotation Yrotation Zrotation
									JOINT newVegas:LeftHandRing2
									{
										OFFSET 2.733170 0.000000 0.000000
										CHANNELS 3 Xrotation Yrotation Zrotation
										JOINT newVegas:LeftHandRing3
										{
											OFFSET 3.178268 0.000000 0.000000
											CHANNELS 3 Xrotation Yrotation Zrotation
											End Site
											{
												OFFSET 0.119102 3.170624 0.185394
											}
										}
									}
								}
								JOINT newVegas:LeftHandPinky1
								{
									OFFSET 15.989624 -0.606689 -7.535461
									CHANNELS 3 Xrotation Yrotation Zrotation
									JOINT newVegas:LeftHandPinky2
									{
										OFFSET 2.538986 0.000000 0.000000
										CHANNELS 3 Xrotation Yrotation Zrotation
										JOINT newVegas:LeftHandPinky3
										{
											OFFSET 2.593102 0.000000 0.000000
											CHANNELS 3 Xrotation Yrotation Zrotation
											End Site
											{
												OFFSET -0.150902 2.584198 0.152708
											}
										}
									}
								}
							}
							JOINT newVegas:Left_Sleeve
							{
								OFFSET 0.267448 -0.649796 0.577675
								CHANNELS 3 Xrotation Yrotation Zrotation
								End Site
								{
									OFFSET 0.000000 15.991241 0.000000
								}
							}
							JOINT newVegas:Left_CapeC
							{
								OFFSET 15.715958 -8.608795 -6.935905
								CHANNELS 3 Xrotation Yrotation Zrotation
								JOINT newVegas:Left_CapeC1
								{
									OFFSET 0.000000 -8.688499 0.000000
									CHANNELS 3 Xrotation Yrotation Zrotation
									End Site
									{
										OFFSET 0.000000 8.688499 0.000000
									}
								}
							}
						}
						JOINT newVegas:Left_CapeB
						{
							OFFSET 26.118385 -8.608795 -7.079235
							CHANNELS 3 Xrotation Yrotation Zrotation
							JOINT newVegas:Left_CapeB1
							{
								OFFSET 0.000000 -8.688499 0.000000
								CHANNELS 3 Xrotation Yrotation Zrotation
								End Site
								{
									OFFSET 0.000000 8.688499 0.000000
								}
							}
						}
						JOINT newVegas:Left_CapeA
						{
							OFFSET 5.115639 -8.608795 -10.395809
							CHANNELS 3 Xrotation Yrotation Zrotation
							JOINT newVegas:Left_CapeA1
							{
								OFFSET 0.000000 -8.688499 0.000000
								CHANNELS 3 Xrotation Yrotation Zrotation
								End Site
								{
									OFFSET 0.000000 8.688499 0.000000
								}
							}
						}
					}
				}
				JOINT newVegas:RightShoulder
				{
					OFFSET -15.263000 10.923401 -0.547700
					CHANNELS 3 Xrotation Yrotation Zrotation
					JOINT newVegas:RightArm
					{
						OFFSET -25.438599 -2.830597 -13.032500
						CHANNELS 3 Xrotation Yrotation Zrotation
						JOINT newVegas:RightForeArm
						{
							OFFSET -29.960503 0.000000 0.000000
							CHANNELS 3 Xrotation Yrotation Zrotation
							JOINT newVegas:RightHand
							{
								OFFSET -27.849251 0.000000 0.000000
								CHANNELS 3 Xrotation Yrotation Zrotation
								JOINT newVegas:RightHandThumb1
								{
									OFFSET -4.487587 -3.305161 6.305391
									CHANNELS 3 Xrotation Yrotation Zrotation
									JOINT newVegas:RightHandThumb2
									{
										OFFSET -5.480453 -3.164139 3.164143
										CHANNELS 3 Xrotation Yrotation Zrotation
										JOINT newVegas:RightHandThumb3
										{
											OFFSET -5.159721 -2.978973 2.978967
											CHANNELS 3 Xrotation Yrotation Zrotation
											End Site
											{
												OFFSET -2.494507 5.926697 1.738678
											}
										}
									}
								}
								JOINT newVegas:RightHandIndex1
								{
									OFFSET -18.578728 -0.527832 5.208049
									CHANNELS 3 Xrotation Yrotation Zrotation
									JOINT newVegas:RightHandIndex2
									{
										OFFSET -3.192009 0.000000 0.000000
										CHANNELS 3 Xrotation Yrotation Zrotation
										JOINT newVegas:RightHandIndex3
										{
											OFFSET -3.835129 0.000000 0.000000
											CHANNELS 3 Xrotation Yrotation Zrotation
											End Site
											{
												OFFSET 0.034599 3.816971 0.371180
											}
										}
									}
								}
								JOINT newVegas:RightHandMiddle1
								{
									OFFSET -18.476105 0.000000 0.000000
									CHANNELS 3 Xrotation Yrotation Zrotation
									JOINT newVegas:RightHandMiddle2
									{
										OFFSET -3.324875 0.000000 0.000000
										CHANNELS 3 Xrotation Yrotation Zrotation
										JOINT newVegas:RightHandMiddle3
										{
											OFFSET -4.596550 0.000000 0.000000
											CHANNELS 3 Xrotation Yrotation Zrotation
											End Site
											{
												OFFSET -0.057701 4.578827 0.399218
											}
										}
									}
								}
								JOINT newVegas:RightHandRing1
								{
									OFFSET -17.732719 0.121887 -4.201567
									CHANNELS 3 Xrotation Yrotation Zrotation
									JOINT newVegas:RightHandRing2
									{
										OFFSET -2.733170 0.000000 0.000000
										CHANNELS 3 Xrotation Yrotation Zrotation
										JOINT newVegas:RightHandRing3
										{
											OFFSET -3.178268 0.000000 0.000000
											CHANNELS 3 Xrotation Yrotation Zrotation
											End Site
											{
												OFFSET -0.119102 3.170624 0.185394
											}
										}
									}
								}
								JOINT newVegas:RightHandPinky1
								{
									OFFSET -15.989624 -0.606689 -7.535461
									CHANNELS 3 Xrotation Yrotation Zrotation
									JOINT newVegas:RightHandPinky2
									{
										OFFSET -2.538986 0.000000 0.000000
										CHANNELS 3 Xrotation Yrotation Zrotation
										JOINT newVegas:RightHandPinky3
										{
											OFFSET -2.593102 0.000000 0.000000
											CHANNELS 3 Xrotation Yrotation Zrotation
											End Site
											{
												OFFSET 0.150902 2.584198 0.152708
											}
										}
									}
								}
							}
							JOINT newVegas:Right_CapeC
							{
								OFFSET -15.715958 -8.608795 -6.935905
								CHANNELS 3 Xrotation Yrotation Zrotation
								JOINT newVegas:Right_CapeC1
								{
									OFFSET 0.000000 -8.688499 0.000000
									CHANNELS 3 Xrotation Yrotation Zrotation
									End Site
									{
										OFFSET 0.000000 8.688499 0.000000
									}
								}
							}
							JOINT newVegas:Right_Sleeve
							{
								OFFSET -0.267448 -0.649994 0.577675
								CHANNELS 3 Xrotation Yrotation Zrotation
								End Site
								{
									OFFSET 0.000000 15.991302 0.000000
								}
							}
						}
						JOINT newVegas:Right_CapeA
						{
							OFFSET -5.115540 -8.608795 -10.395824
							CHANNELS 3 Xrotation Yrotation Zrotation
							JOINT newVegas:Right_CapeA1
							{
								OFFSET 0.000000 -8.688499 0.000000
								CHANNELS 3 Xrotation Yrotation Zrotation
								End Site
								{
									OFFSET 0.000000 8.688499 0.000000
								}
							}
						}
						JOINT newVegas:Right_CapeB
						{
							OFFSET -26.118187 -8.608795 -7.079266
							CHANNELS 3 Xrotation Yrotation Zrotation
							JOINT newVegas:Right_CapeB1
							{
								OFFSET 0.000000 -8.688499 0.000000
								CHANNELS 3 Xrotation Yrotation Zrotation
								End Site
								{
									OFFSET 0.000000 8.688499 0.000000
								}
							}
						}
					}
				}
				JOINT newVegas:Left_Collar
				{
					OFFSET 18.625099 8.655502 8.828100
					CHANNELS 3 Xrotation Yrotation Zrotation
					JOINT newVegas:Left_Collar1
					{
						OFFSET 14.783401 10.540405 -1.259500
						CHANNELS 3 Xrotation Yrotation Zrotation
						End Site
						{
							OFFSET 0.000000 18.199875 0.000000
						}
					}
				}
				JOINT newVegas:Collar_Back
				{
					OFFSET 0.000000 15.630707 -20.132601
					CHANNELS 3 Xrotation Yrotation Zrotation
					End Site
					{
						OFFSET 0.000000 22.523010 0.000000
					}
				}
				JOINT newVegas:Left_Peck
				{
					OFFSET 17.239599 -5.132599 25.482599
					CHANNELS 3 Xrotation Yrotation Zrotation
					End Site
					{
						OFFSET 0.000000 22.523010 0.000000
					}
				}
				JOINT newVegas:Right_Peck
				{
					OFFSET -17.239599 -5.132202 25.482599
					CHANNELS 3 Xrotation Yrotation Zrotation
					End Site
					{
						OFFSET 0.000000 22.523010 0.000000
					}
				}
				JOINT newVegas:Right_Collar
				{
					OFFSET -18.625099 8.655792 8.828100
					CHANNELS 3 Xrotation Yrotation Zrotation
					JOINT newVegas:Right_Collar1
					{
						OFFSET -14.783401 10.539993 -1.259500
						CHANNELS 3 Xrotation Yrotation Zrotation
						End Site
						{
							OFFSET 0.000000 18.199631 0.000000
						}
					}
				}
			}
		}
		JOINT newVegas:Belly
		{
			OFFSET 0.000000 -6.540398 9.014299
			CHANNELS 3 Xrotation Yrotation Zrotation
			End Site
			{
				OFFSET 0.000000 11.566666 0.000000
			}
		}
	}
	JOINT newVegas:ElvisFacialAnim_Joint
	{
		OFFSET 1.000000 -95.330101 -8.825800
		CHANNELS 3 Xrotation Yrotation Zrotation
		End Site
		{
			OFFSET 0.000000 35.315800 0.000000
		}
	}
}
MOTION
Frames: 4
Frame Time: 0.033333
-9.302698 90.223434 4.098808 -2.632324 0.497337 4.823857 -0.000000 0.000000 0.000000 -49.074011 3.373526 15.781239 82.236837 11.056075 -5.859468 -22.323109 12.711937 10.511616 0.000000 0.000001 -0.000001 -0.000001 -0.000001 -0.000000 -23.347098 -3.653260 -19.970560 46.236300 -6.023900 -0.143627 -17.683865 -4.976827 13.821048 0.000000 0.000000 -0.000000 0.000000 -0.000001 0.000000 18.526571 0.455214 -3.891178 6.161161 0.335929 -2.391905 6.168108 0.271131 -2.384190 -0.046532 0.886455 -0.978117 -0.046535 0.886453 -0.978116 0.000001 -0.000000 0.000000 -0.046533 0.886453 -0.978119 -0.046546 0.886450 -0.978116 -0.000000 0.000001 -0.000001 0.000001 -0.000000 0.000000 4.807286 -14.466614 -3.828868 -6.841716 4.080194 -40.725221 -0.000114 -87.844197 0.000159 -38.892105 -10.809305 2.656083 -1.627889 3.481526 7.546998 4.622408 16.314709 1.369038 -0.000000 -0.000001 -0.000001 0.034773 0.692664 -5.749533 0.034794 0.692652 -5.749528 -0.000001 0.000000 0.000001 0.034580 0.690742 -5.733555 0.034978 0.694584 -5.765527 -0.000000 0.000002 0.000000 0.526345 5.836792 -5.153512 0.034775 0.692660 -5.749552 0.000000 -0.000001 0.000002 1.243845 14.455487 -4.213715 0.022940 -3.361936 -6.257708 0.000000 -0.000002 -0.000002 0.000000 0.000000 0.000000 0.000000 0.000000 0.000000 -0.000000 0.000001 0.000000 0.000000 0.000001 0.000004 -0.000000 0.000001 0.000002 0.000000 0.000001 0.000004 0.000000 0.000002 0.000004 11.165120 21.244330 -13.066411 -34.374430 -20.389868 38.303079 -0.000002 71.127780 -0.000023 -22.587562 0.010106 -4.595749 -1.846996 -3.340686 -6.548766 5.119880 -13.941101 -0.598907 0.000001 0.000003 -0.000000 0.035039 -0.698645 5.742678 0.000004 -0.000002 0.000017 0.000001 -0.000001 -0.000000 0.035040 -0.698640 5.742682 0.000012 -0.000008 -0.000003 0.000000 -0.000001 0.000001 0.525660 -5.842132 5.140620 0.000001 -0.000002 -0.000001 -0.000000 -0.000001 0.000000 0.920896 -10.418113 4.636545 0.000002 0.000001 0.000037 0.000001 0.000002 -0.000002 0.000003 -0.000000 0.000001 0.000003 -0.000000 0.000003 0.000003 -0.000001 0.000001 -0.000001 0.000000 -0.000002 -0.000000 0.000001 -0.000004 -0.000001 0.000000 -0.000002 0.000000 0.000001 -0.000002 -0.000003 0.000000 -0.000000 -0.000003 0.000000 -0.000000 -0.000003 0.000000 -0.000000 -0.000003 0.000000 -0.000000 -0.000003 0.000000 -0.000000 -0.000003 0.000000 -0.000000 -0.000003 0.000000 -0.000000 -0.000001 -0.000000 0.000000 -0.000000 0.000000 0.000000 
-9.296631 90.170303 7.451342 -3.344212 0.000285 4.689274 0.000000 0.000000 0.000000 -51.444158 3.281846 15.674627 76.978295 9.662626 -5.850508 -19.728228 13.733012 12.532011 -0.000000 0.000003 -0.000000 -0.000000 0.000000 0.000001 -19.139554 -4.649549 -19.626511 45.336904 -5.712260 -1.176414 -20.346778 -5.484172 15.078846 0.000000 -0.000002 -0.000000 0.000000 0.000001 -0.000000 17.741147 3.589410 -4.775898 6.190726 1.339644 -3.166165 6.208370 1.256389 -3.154410 -0.165295 0.728616 -1.053401 -0.165292 0.728622 -1.053401 0.000001 -0.000001 0.000000 -0.165370 0.728617 -1.053400 -0.165206 0.728623 -1.053408 0.000001 0.000000 -0.000000 0.000001 -0.000001 0.000000 4.583543 -13.777756 -3.544733 -6.908236 5.867935 -40.465261 -0.000565 -88.125812 -0.000496 -38.747233 -10.617746 2.817129 -1.626434 3.464930 7.523030 4.622050 16.308830 1.368518 0.000002 -0.000003 -0.000005 0.035024 0.694922 -5.768313 0.033948 0.684408 -5.680890 -0.000000 0.000001 -0.000000 0.034819 0.692995 -5.752350 0.034151 0.686324 -5.696864 -0.000000 -0.000000 0.000000 0.528279 5.838884 -5.172433 0.033951 0.684419 -5.680906 0.000000 0.000001 0.000001 1.248705 14.457347 -4.233152 0.022044 -3.370165 -6.189154 0.000000 0.000000 0.000000 -0.000001 0.000000 0.000000 -0.000001 0.000000 0.000000 -0.000002 0.000001 0.000000 -0.000000 -0.000002 0.000001 -0.000001 -0.000003 -0.000001 -0.000000 -0.000002 0.000001 -0.000000 -0.000003 0.000001 11.121182 20.844009 -13.519507 -32.616298 -19.525561 38.523278 0.000052 73.102729 -0.000070 -26.706659 -4.923008 -10.061502 -1.848608 -3.349580 -6.569658 5.121462 -13.958607 -0.600009 -0.000001 -0.000000 0.000003 0.034815 -0.696444 5.724516 0.000023 -0.010886 0.089421 -0.000002 -0.000001 -0.000000 0.034825 -0.696447 5.724507 0.000000 -0.010885 0.089435 -0.000001 0.000000 0.000000 0.523789 -5.840069 5.122337 -0.000004 -0.010912 0.089423 -0.000000 0.000001 0.000001 0.917547 -10.416191 4.618042 0.000004 -0.010895 0.089438 -0.000000 0.000002 -0.000001 0.000003 0.000000 -0.000000 0.000003 0.000001 -0.000001 0.000003 0.000000 -0.000001 -0.000000 -0.000001 -0.000001 0.000000 0.000000 -0.000001 -0.000000 -0.000001 -0.000001 0.000000 -0.000000 0.000001 0.000001 0.000000 -0.000000 0.000001 0.000000 -0.000000 0.000001 0.000000 -0.000000 0.000001 0.000000 -0.000000 0.000001 0.000000 -0.000000 0.000001 0.000000 -0.000000 0.000001 0.000000 -0.000000 0.000000 -0.000000 -0.000000 0.000000 0.000000 0.000000 
-9.178265 89.883728 10.822349 -3.641000 -0.650337 4.602348 -0.000000 -0.000000 0.000000 -52.963862 2.889612 16.025615 71.438854 7.938229 -5.814776 -19.093599 13.713930 11.995422 -0.000000 -0.000003 0.000000 -0.000001 -0.000001 -0.000000 -15.442469 -5.167072 -19.381229 44.512135 -5.576581 -2.139301 -22.841442 -6.042696 16.458089 -0.000000 0.000002 -0.000000 0.000001 -0.000001 0.000000 16.750353 6.574506 -5.748858 6.279031 2.279491 -3.938005 6.315797 2.185869 -3.915142 -0.327741 0.624541 -1.145009 -0.327729 0.624548 -1.145011 -0.000000 -0.000001 -0.000000 -0.327734 0.624544 -1.145011 -0.327732 0.624553 -1.145007 -0.000002 0.000000 -0.000000 -0.000000 -0.000001 0.000000 4.514946 -13.591446 -3.623653 -7.440414 8.890828 -39.963109 -0.000339 -88.880978 -0.000393 -38.183944 -10.553488 2.874047 -1.624879 3.444849 7.497930 4.622178 16.308784 1.368361 -0.000000 -0.000002 -0.000003 0.035244 0.697175 -5.787192 0.033266 0.677516 -5.623378 0.000000 -0.000002 -0.000000 0.035047 0.695253 -5.771198 0.033464 0.679441 -5.639374 0.000000 -0.000001 0.000000 0.530205 5.840991 -5.191401 0.033270 0.677504 -5.623400 0.000000 -0.000002 -0.000000 1.253559 14.459205 -4.252676 0.021314 -3.377080 -6.131672 0.000000 -0.000005 -0.000000 -0.000000 0.000001 -0.000001 -0.000000 0.000001 -0.000001 -0.000001 0.000001 -0.000001 -0.000001 -0.000001 -0.000001 -0.000001 -0.000002 -0.000002 -0.000001 -0.000001 -0.000001 -0.000001 -0.000001 -0.000000 10.809086 20.267560 -13.265015 -31.072067 -18.523770 38.604164 -0.000074 73.844638 0.000037 -29.168043 -5.904831 -11.324887 -1.850095 -3.354637 -6.588771 5.123618 -13.981608 -0.601430 -0.000000 -0.000002 -0.000001 0.034603 -0.694290 5.706907 0.000038 -0.022889 0.187786 -0.000001 0.000001 -0.000001 0.034603 -0.694291 5.706914 0.000045 -0.022889 0.187782 0.000003 -0.000001 0.000001 0.521994 -5.838090 5.104600 0.000041 -0.022885 0.187826 0.000002 -0.000001 -0.000001 0.914310 -10.414316 4.600104 0.000039 -0.022883 0.187813 0.000002 0.000003 0.000000 0.000001 0.000001 -0.000000 0.000001 0.000001 0.000000 0.000001 0.000001 -0.000001 0.000000 0.000000 -0.000001 0.000001 0.000001 -0.000001 0.000000 0.000000 -0.000001 0.000001 0.000001 0.000000 0.000000 0.000000 -0.000000 0.000000 0.000000 -0.000000 0.000000 0.000000 -0.000000 0.000000 0.000000 -0.000000 0.000000 0.000000 -0.000000 0.000000 0.000000 -0.000000 0.000000 0.000000 -0.000000 0.000000 0.000000 -0.000000 -0.000000 -0.000000 0.000000 
-8.912272 89.342682 14.193616 -3.595882 -1.385536 4.478232 -0.000000 -0.000000 -0.000000 -53.811816 2.265916 16.697869 65.684611 6.367370 -5.275947 -20.184672 12.220264 8.597513 -0.000001 -0.000004 -0.000002 -0.000000 -0.000001 0.000001 -12.098926 -5.282115 -19.464767 43.825888 -5.502760 -2.540785 -25.274292 -6.650643 17.752580 0.000000 0.000000 0.000000 0.000001 0.000002 -0.000002 15.829057 9.122482 -6.788972 6.319831 3.078905 -4.606171 6.378801 2.985585 -4.567855 -0.519499 0.554891 -1.282588 -0.519489 0.554897 -1.282586 0.000001 0.000001 0.000001 -0.519408 0.554906 -1.282592 -0.519487 0.554884 -1.282584 -0.000003 0.000001 0.000002 0.000001 0.000001 0.000001 4.471225 -13.513531 -4.097549 -8.405797 12.782119 -39.369296 0.001891 -89.726959 0.001838 -37.198406 -10.650112 2.799689 -1.623272 3.421385 7.471705 4.622808 16.314339 1.368522 -0.000000 -0.000004 -0.000002 0.035473 0.699447 -5.806067 0.032726 0.671920 -5.576678 -0.000000 0.000002 0.000000 0.035284 0.697528 -5.790069 0.032919 0.673823 -5.592649 0.000000 0.000000 -0.000000 0.532153 5.843099 -5.210388 0.032725 0.671909 -5.576686 0.000000 -0.000001 -0.000001 1.258469 14.461068 -4.272198 0.020690 -3.382681 -6.085046 0.000000 -0.000002 -0.000001 0.000001 0.000000 0.000001 0.000001 0.000000 0.000001 0.000000 0.000000 0.000000 -0.000001 0.000000 0.000000 -0.000001 0.000000 -0.000001 -0.000001 0.000000 0.000000 0.000000 -0.000000 0.000001 10.694598 20.226429 -12.903335 -29.998358 -17.969854 38.767700 0.000023 73.982785 -0.000025 -29.376435 -4.841533 -9.708595 -1.851478 -3.355999 -6.606142 5.126261 -14.009858 -0.603136 -0.000001 0.000001 0.000001 0.034408 -0.692243 5.689840 0.000091 -0.035925 0.294813 0.000001 -0.000002 0.000002 0.034418 -0.692258 5.689830 0.000083 -0.035912 0.294822 -0.000004 0.000000 0.000000 0.520242 -5.836167 5.087447 0.000097 -0.035940 0.294800 -0.000002 0.000001 -0.000001 0.911170 -10.412527 4.582728 0.000107 -0.035925 0.294807 -0.000001 0.000001 0.000001 -0.000003 0.000001 -0.000000 -0.000003 0.000000 -0.000001 -0.000003 0.000001 -0.000002 0.000000 0.000002 -0.000001 0.000001 0.000003 -0.000000 0.000000 0.000002 -0.000001 0.000001 0.000003 -0.000000 -0.000001 0.000001 -0.000000 -0.000001 0.000001 -0.000000 -0.000001 0.000001 -0.000000 -0.000001 0.000001 -0.000000 -0.000001 0.000001 -0.000000 -0.000001 0.000001 -0.000000 -0.000001 0.000001 -0.000000 0.000000 -0.000000 0.000000 -0.000000 -0.000000 -0.000000 
